<?xml version="1.0" encoding="UTF-8"?>
<svg id="Calque_1" data-name="Calque 1" xmlns="http://www.w3.org/2000/svg" viewBox="0 0 128 128">
  <defs>
    <style>
      .cls-1 {
        fill: #2e3742;
      }

      .cls-1, .cls-2, .cls-3, .cls-4, .cls-5, .cls-6, .cls-7 {
        stroke-width: 0px;
      }

      .cls-2 {
        fill: #359360;
      }

      .cls-3 {
        fill: #b9bab9;
      }

      .cls-4, .cls-8 {
        fill: #fff;
      }

      .cls-8 {
        stroke: #010101;
        stroke-miterlimit: 10;
      }

      .cls-5 {
        fill: #60b778;
      }

      .cls-6 {
        fill: #e9eaec;
      }

      .cls-7 {
        fill: #cccfdb;
      }
    </style>
  </defs>
  <path class="cls-8" d="M49.02,27.2c-.05,2.37-.15,6.96,1.37,7.4.31.09.58-.02.64-.05,2.78-1.12.64-16.43-.69-16.42-.85,0-1.27,6.27-1.33,9.07Z"/>
  <path class="cls-4" d="M50.39,37.33c-.37.06-1.49-2.96-2.11-7.22-1.05-7.3-2.31-16.03,3.21-21.74,6.48-6.71,19.31-6.14,24.19-.83,1.57,1.71,2.74,4.38,3.66,6.48,1.61,3.68,2.19,6.62,2.57,8.6,1.08,5.69.38,8,.07,8.85-.45,1.27-.96,2.71-1.63,2.72-2.44.02-.4-19.04-9.47-24.38-3.77-2.22-9-1.8-12.59.25-3.69,2.1-5.21,5.67-6.24,8.18-3.9,9.51-1.01,18.99-1.65,19.09Z"/>
  <path class="cls-4" d="M19.06,29.56c-.1-.96,9.73-2.5,20.62-4.72,10.75-2.19,21.65-3.59,32.34-6.01,4.07-.92,10.28-2.42,13.29.74.87.92,1.75,2.51,1.33,3.89-.66,2.2-4.3,2.84-8.39,3.51-9.03,1.47-13.55,2.21-16.03,2.5-13.99,1.63-28.01,6.89-31.52,3.7-.27-.25-1.23-1.23-2.84-1.85-1.36-.53-2.21-.42-4.12-.65-1.17-.14-4.61-.55-4.67-1.11Z"/>
  <path class="cls-4" d="M32.93,82.57c.34-7.87.24-17.2-.93-27.63-1.17-10.47-2.56-14.4,0-18.02,2.72-3.85,6.45-2.45,24.94-5.36,12.96-2.04,21.29-3.71,21.29-3.71,4.74-.95,9.64-.88,14.37-1.87,2.79-.58,4.8-1.14,6.39,0,2.52,1.81,2.04,6.47,1.86,10.08-.32,6.21.9-3.63,3.3,38.4.34,5.99.38,7.27-.24,9.24-2.88,9.22-13.6,13.15-17.49,14.58-22.53,8.26-50.05-12.98-53.49-15.7Z"/>
  <path class="cls-6" d="M37.44,83.58c.23-.4,2.71.64,4.91,1.58,6.36,2.73,9.54,4.09,13.51,6.13,12.48,6.4,16.43,7.4,16.17,8.4-.34,1.36-7.89.63-11-.48-1.13-.4-1.99-.78-2.77-1.21-3.72-2.04-4.56-3.36-7.76-5.62-4.02-2.85-5.31-2.32-10.05-5.91-.79-.6-3.26-2.46-3.01-2.89Z"/>
  <path class="cls-7" d="M79.76,35.75c-.52-.2-1.17-.56-1.44-1.21-.32-.75.01-1.51.18-2.06.13-.41.27-1.06-.26-4.71-1.06-7.25-1.59-10.87-3.68-13.76-1.16-1.61-2.37-2.64-3.05-3.17-.92-.71-5.93-4.66-11.24-3.13-2.06.59-3.5,1.82-4.15,2.37-2.51,2.13-3.5,4.66-3.74,4.53-.19-.1.22-1.95,1.37-3.63,2.34-3.44,6.4-4.23,7.46-4.44,4.33-.85,7.82.74,9.07,1.39.62.4,1.48,1,2.41,1.84,2.81,2.57,4.07,5.44,4.83,7.22.27.64,1.27,3.03,1.87,6.52.93,5.4.25,9.55.97,9.67.26.04.54-.45.82-.93.84-1.41.66-2.78.73-2.78.14,0,1.14,3.21-.55,5.18-.54.63-1.2.95-1.6,1.1Z"/>
  <path class="cls-7" d="M50.38,13.82c.58-2.16.63-2.71.54-2.74-.27-.1-2.77,3.97-3.46,8.95-.52,3.79-.3,6.46.14,11.8.45,5.43,1,6.87,1.9,7.12.7.19,1.62-.32,2.02-.98.83-1.38-.01-3.19-.2-3.17-.11,0,.03.73-.49,1.37-.08.1-.45.55-.76.52-.63-.07-.98-2.26-1.31-6.8-.28-3.92-.39-5.87-.34-6.8.11-2.18.52-5.43,1.96-9.26Z"/>
  <path class="cls-3" d="M59.9,10.6c.17-.81,1.55-1.5,2.54-1.18.7.23,1.02.91,1.92,3.89,1.57,5.17,1.44,5.86,1.03,6.31-.6.65-1.81.81-2.47.35-.74-.51-.3-1.43-.89-4.09-.34-1.53-.52-2.34-1.1-3.33-.62-1.06-1.15-1.39-1.03-1.94Z"/>
  <path class="cls-3" d="M35.92,24.44c-1.93.64-2.46.44-2.61.21-.13-.2-.01-.45.14-1.11.23-1.01.2-1.54.27-2.05.1-.67.87-4.82,2.75-8.43.82-1.58,4.67-8.99,11.82-10.51,3.47-.74,7.43-.02,7.53.8.05.42-.93.84-2.36,1.46-10.18,4.45-11.93,6.06-12.83,7.04-1.43,1.57-2.15,3.12-2.75,4.41-1.53,3.31-1.89,6.33-1.96,8.19Z"/>
  <path class="cls-7" d="M33.6,77.5c.71-.22,1.55,3.6,4.65,7.06,2.37,2.65,3.68,2.43,10.31,6.11,8.65,4.79,12.34,8.45,12.33,8.47,0,0-.02.03-.02.03h0s-2.57-.31-5.07-.88c-2.75-.62-5.16-1.49-6.54-2-.26-.1-.39-.14-.56-.21-2.1-.82-2.25-1.23-5.93-3.15-3.96-2.06-4.93-2.17-5.75-2.13-1.61.09-2.25.73-2.95.27-1.02-.68-.49-2.63-.35-5.92.21-4.96-.7-7.47-.12-7.65Z"/>
  <path class="cls-7" d="M28.51,30.86c.37-.16.76.89,2.18,1.48.36.15.75.26,2.57.37,2.62.16,3.17.02,3.2.17.11.48-5.4,3.39-7.46,1.5-1.12-1.03-1-3.3-.49-3.52Z"/>
  <path class="cls-7" d="M74.67,20.94c-.54-.11-.86,1.82-2.47,3.72-1.95,2.3-4.37,2.89-4.22,3.26.1.25,1.2-.12,3.49-.41,3-.37,4.03-.09,4.45-.81.26-.45-.02-.75-.51-2.96-.46-2.07-.42-2.73-.73-2.79Z"/>
  <path class="cls-7" d="M76.3,29.67c-.57-.67-1.67-.91-2.41-.59-1.67.72-1.77,4.38-.95,6.87.19.58.63,1.87,1.83,3.05.33.32,2.16,2.07,4.86,2.06,3.28,0,5.34-2.6,5.9-3.32,2.69-3.42,2.99-8.73,1.34-9.69-.68-.4-1.75-.08-2.4.46-1.63,1.36-.15,3.8-1.75,6.57-.25.43-1.52,2.5-3.2,2.43-1.33-.06-2.45-1.46-2.89-2.66-.84-2.29.71-3.94-.33-5.16Z"/>
  <path class="cls-7" d="M45.85,34.56c-.74-.46-1.87-.35-2.47.19-1.3,1.16-.44,4.58,1.15,6.66,1.54,2.01,4.69,3.98,7.95,2.96,3.23-1.02,4.35-4.27,4.6-4.99.84-2.45.83-6.09-.86-6.93-.75-.37-1.89-.23-2.46.4-.89,1,.38,2.42-.16,4.87-.08.35-.63,2.84-2.3,3.3-1.29.36-2.77-.63-3.56-1.64-1.5-1.92-.52-3.97-1.89-4.81Z"/>
  <path class="cls-5" d="M31.06,57.27c.48-17.72-1.06-19.56-2.24-20.35-1.08-.72-2.73-1.17-3.67-.51-1.47,1.03-.49,4.27-.09,8.19.07.65-.05,4.6-.27,12.49-.3,10.55-.46,15.82-.82,21.28-.07,1.08-.31,4.5-.37,9.07-.08,6.58.3,8.36.5,9.21.47,1.92,1.63,4.11,3.85,8.47,2.65,5.2,3.98,7.79,4.51,7.67,1.53-.36-1.11-11.9-.99-29.87,0-.67.21-3.07.09-6.35-.12-3.11-.34-3-.41-5.26-.23-8.47-.09-14.02-.09-14.02Z"/>
  <path class="cls-5" d="M22.36,53.99c.84-12.67,4.85-17.41,2.07-20.41-1.84-1.99-5.99-2.49-8.58-.78-4.57,3.04-.85,10.81-1.64,31.89-.39,10.55-.59,15.83-1.11,19.31-.63,4.21-.26,8.52-.55,12.77-.15,2.26-.29,3.78.52,4.26,1.49.9,5.76-2.02,7.92-5.95,1.6-2.91,1.17-4.77,1.18-15.79,0-4.41.07-.18.14-11.52.08-13.52-.05-12.27.05-13.78Z"/>
  <path class="cls-5" d="M22.21,97.57c4.9.29,8.99,12.56,6.49,14.61-1.21.99-3.85-.48-7.97-2.78-2.73-1.52-7.46-4.02-7.06-6.11.11-.59.5-.42,2.56-2.12,2.34-1.93,3.14-3.21,5.12-3.54.11-.02.51-.09.86-.07Z"/>
  <path class="cls-5" d="M34.68,90.53c3.58-2.53,9.17,5.57,22.91,8.13,2.74.51,13.99,2.33,25.47-2.59,12.86-5.51,17.45-15.8,20.85-14.11,3.03,1.5,3.75,10.27-.04,16.2-3.92,6.15-10.53,5.86-30.16,9.57-25.13,4.75-30.34,8.26-35.64,4-6.75-5.42-7.41-18.36-3.39-21.2Z"/>
  <ellipse class="cls-5" cx="43.43" cy="67.99" rx="3.85" ry="2.09"/>
  <ellipse class="cls-5" cx="94.1" cy="63" rx="3.85" ry="2.09"/>
  <path class="cls-2" d="M16.01,101.49c-.38.28-.7.49-.92.64-.84.54-1.47.85-1.42,1.17,0,.02,0,.03.01.05.04.08.16.16.68.46.32.18.6.42.9.61.89.58,2.75,2.16,4.16,3.22,2.75,2.07,6.21,3.88,7.04,3.7.63-.14,1.31-.67,1.3-1.13-.02-.64-1.35-.93-3.09-1.69,0,0-2.4-1.04-4.79-2.84-1.04-.78-2.48-2.08-3.87-4.19Z"/>
  <path class="cls-2" d="M34.55,99.48c.67-.32,2.21,4.05,5.21,6.66,4.3,3.74,12.5,2.51,28.72-.14,1.96-.32,5.45-1.02,12.44-2.43,5.8-1.17,9.72-2.01,14.36-4.16,4.71-2.19,6.3-3.9,7.15-5.69,1.07-2.28,1.08-5.03,1.34-5,.13.01.13.74.22,2.55.16,3.37.27,3.37.21,4.02-.1,1.03-.52,2.72-2.31,4.67h0c-.78.49-2,1.2-3.57,1.87-2.78,1.19-5.07,1.58-5.98,1.73-7.51,1.29-15,2.74-22.54,3.89-7.37,1.13-11.06,1.69-12.74,2.04-3.5.73-7.04,1.22-10.56,1.85-4.01.72-6.64,1.2-8.82-.35-1.58-1.13-2.31-2.89-2.34-2.97-.47-1.17-.27-1.7-.5-4.52-.24-3-.59-3.88-.28-4.02Z"/>
  <path class="cls-2" d="M21.18,68.8c.55-2.95.95-4.63,1.04-4.62.03,0,.02.16.02.86,0,.86.01.84.01,1.47,0,.86-.03,1.59-.05,2.19-.12,2.65-.44,7.54-.46,7.88-.14,2.13-.17,2.5-.15,3.2,0,.39-.28,7.74-.28,8.45,0,.1,0,.57,0,1.56,0,0,.06,3.05.14,3.28.15.45-.12,2.1-.2,2.18-.54.49-1.28.63-3.14,1.66-2.88,1.6-5.44,3.7-5.73,3.38-.14-.16.51-.8,1.6-2.41.35-.51,1.59-2.35,2.43-4.3.44-1.03.65-1.8,1.24-4.44.47-2.12.53-1.92,1.37-6.52,1.1-5.97.97-7.4,2.17-13.82Z"/>
  <path class="cls-7" d="M44.46,25.88c.12,0,.08.88.28,2.28.31,2.14.97,2.84.56,3.42-.26.37-.67.31-2.26.46-2.51.23-3.79.58-3.82.44-.03-.12.9-.5,1.85-.72,1.78-.41,2.38-.11,2.82-.62.42-.49.05-.98.14-2.81.06-1.23.29-2.45.43-2.44Z"/>
  <g>
    <path class="cls-1" d="M107.11,95.8c-.11-.67-.22-1.74-.27-2.41s-.22-2.91-.38-5c-.15-2.09-.31-4.26-.35-4.81-.13-2.04-.27-4-.37-4.81-.13-1.13-.42-5.22-.55-7.49-.05-1.02-.15-2.28-.18-2.78-.16-1.65-.66-8.64-1.21-17.02-.09-1.63-.29-4.16-.44-5.64-.29-3.07-.59-6.94-.73-9.9-.07-1.13-.15-2.33-.18-2.68-.04-.35-.13-1.48-.18-2.5-.26-3.94-.64-5.2-1.87-6.14l-.68-.52h-5.86c-3.24-.02-6.07-.07-6.29-.17-.37-.11-.42-.26-.42-1,0-.48.09-1.48.18-2.24.22-1.76.02-2.57-.82-3.33-.6-.54-.75-.57-2.02-.57-.73,0-1.56.07-1.8.17-.44.17-.48.13-1.04-1.33-2.55-6.49-7.26-11.18-13.4-13.29-1.63-.57-1.85-.61-4.32-.59-1.52,0-2.95.09-3.43.24-.81.22-.88.2-1.56-.24-.9-.61-2.62-1.18-4.58-1.52-1.63-.3-2.07-.3-4.23-.09-2.03.2-3.54.65-5.61,1.67-4.25,2.07-7.79,5.7-10.46,10.73-1.39,2.61-2.33,5.7-3.01,9.9-.24,1.42-.42,2.61-.44,2.63,0,.02-.66.11-1.47.22-6.76.87-12.37,1.85-13.25,2.31-.81.43-1.98,1.87-2.33,2.85-.24.65-.38,2.16-.57,5.9-.53,11.03-.86,17.23-1.19,22.07-.09,1.57-.22,3.66-.27,4.63-.04.96-.16,3.16-.26,4.9-.09,1.72-.22,4.14-.27,5.37-.05,1.22-.18,3.42-.27,4.9-.2,2.79-.66,11.16-.82,15.17-.07,1.28-.18,3.33-.29,4.59-.24,3.15-.2,4.07.13,5.2.38,1.33,1.41,2.41,3.35,3.52.86.5,4.14,2.46,7.26,4.37,5.66,3.44,10.48,6,12.74,6.74.84.3,1.65.41,2.8.41,1.69,0,2.25-.07,6.63-.94,1.52-.3,4.56-.89,6.78-1.3,2.22-.43,5.28-1,6.78-1.3,1.52-.3,4.56-.87,6.78-1.3,2.22-.43,5.22-1.02,6.69-1.31,3.9-.78,11.32-2.18,13.74-2.59,1.15-.19,3.35-.59,4.86-.89,1.52-.3,4.03-.78,5.59-1.04,1.56-.28,3.7-.65,4.76-.83,1.06-.2,2.68-.48,3.57-.65,2.8-.5,3.99-1.42,4.84-3.7.31-.83.38-1.44.38-3.2,0-1.18-.09-2.7-.18-3.37ZM84.77,23.42c.18-.33.22-.35.48-.09.26.24.26.37.05.85-.13.31-.35.57-.48.57-.31,0-.35-.8-.05-1.33ZM83.23,19.89c.16-.19.6-.15.6.04,0,.09-.16.35-.37.59l-.35.44-.02-.48c0-.26.05-.54.13-.59ZM60.2,4.6c.55-.11,1.17-.24,1.37-.28.66-.15,3.28.04,4.86.33,2.64.52,5.66,2.28,8.17,4.74,2.77,2.72,4.8,6.59,6.03,11.38,1.8,7.07,1.54,14.1-.55,14.64-.9.22-1.85-.8-1.69-1.81.05-.33.18-1.18.31-1.89.42-2.48-.31-8.27-1.56-12.05-1.69-5.22-4.4-8.94-8.08-11.12-3.39-2.02-8.59-1.72-11.93.67-2.55,1.83-4.54,4.42-5.72,7.48-1.52,3.92-1.67,6.98-.68,14.04,1.01,7.03.99,6.72.37,7.36-.27.3-.7.54-.95.54-.66,0-1.47-.98-1.58-1.91-.05-.43-.37-2.57-.68-4.76-1.01-7.03-.81-11.73.73-16.21,1.03-2.96,2.36-5.18,4.25-7.01,2.13-2.05,4.98-3.68,7.31-4.14ZM53.84,24.2c.71-.11,1.78-.28,2.33-.39.55-.09,2.99-.46,5.41-.81,2.42-.33,5.26-.8,6.32-1,2.36-.46,6.41-1.09,6.78-1.05.16.02.35.39.48,1.04.55,2.7.86,4.63.77,4.72-.16.17-2.49.59-4.45.81-5.52.63-6.95.83-10.63,1.42-2.22.35-4.75.76-5.61.91-.88.15-1.67.28-1.78.28-.09,0-.22-.31-.27-.7-.05-.37-.24-1.44-.38-2.35-.48-2.74-.51-2.61,1.04-2.87ZM53.93,17.26c.59-1.48,1.61-3.15,2.71-4.35.57-.61,1.1-1.11,1.19-1.11s.33.28.53.59c.71,1.2,1.78,5.11,1.87,6.98.05.76.02.83-.49.98-.44.11-6.58,1.07-6.93,1.07-.15,0,.7-3.05,1.12-4.16ZM60.38,10.54c0-.13,1.34-.7,1.76-.76.11,0,.48.48.79,1.09,1.1,2.09,2.22,6.09,2.22,7.96,0,.63-.05.7-.57.81-.31.06-.81.11-1.08.11-.48,0-.49-.02-.7-1.72-.26-1.96-1.04-4.63-1.85-6.24-.31-.61-.57-1.18-.57-1.26ZM65.7,10.15c0-.24,1.45.39,2.75,1.18,1.37.85,3.06,2.65,4.27,4.53,1.36,2.16,1.36,2.15.44,2.31-1.87.31-3.04.48-4.09.57l-1.1.11-.26-1.63c-.33-2.35-.99-4.87-1.54-5.96-.26-.52-.48-1.04-.48-1.13ZM46.03,15.26c-.59,1.65-1.01,3.81-1.15,6.05l-.13,1.72-3.01.31c-1.67.19-3.04.3-3.1.26-.15-.17,1.06-4.53,1.72-6.16,1.39-3.39,3.48-6.14,6.05-7.99,1.21-.87,3.37-1.81,3.48-1.52.04.09-.29.67-.75,1.26-.97,1.31-2.47,4.22-3.12,6.07ZM33.9,21.74c.53-3.16,1.28-5.48,2.51-7.97,1.32-2.65,2.16-3.85,4.16-5.85,2.8-2.83,4.53-3.9,7.81-4.92,1.25-.37,1.74-.44,3.21-.37.95.04,2.31.22,2.99.39l1.25.33-.75.43c-.42.24-.97.61-1.23.81-.37.3-.75.37-1.81.37-1.74,0-2.99.28-4.6,1.02-5.75,2.66-10.06,8.88-11.18,16.1-.35,2.37-.2,2.18-1.92,2.41-.49.06-.88.07-.88,0,0-.06.2-1.3.46-2.74ZM21.53,29.4c1.01-.11,3.06-.43,4.54-.68,1.48-.26,4.67-.74,7.09-1.09,6.47-.93,10.79-1.57,10.99-1.65.11-.06.24-.09.29-.09.05-.02.16.76.24,1.68.05.94.22,2.24.37,2.87l.24,1.15-.93.19c-.51.11-2.33.35-4.05.57-3.5.43-7.81,1.17-9.16,1.55-.51.15-1.19.31-1.54.37l-.6.11.11-1.17c.15-1.3-.05-2.04-.6-2.35-.7-.37-2.29-.57-5.39-.74-1.7-.07-3.17-.22-3.26-.31s.57-.26,1.67-.41ZM13.05,99.99c-.44.24-.51.24-.6,0-.09-.26-.02-1.67.55-10.01.05-.81.15-2.85.2-4.53.05-1.68.22-4.59.37-6.48.13-1.89.29-4.88.35-6.66.2-5.66.31-8.23.38-8.51.04-.15.16-2.44.27-5.09.16-4.11.37-7.48.82-14.43.04-.72.13-2.22.2-3.33.07-1.13.13-2.29.15-2.59.02-.31.05-1.7.07-3.11.04-2.91-.15-2.66,2.02-2.35.68.09,2.35.26,3.7.37,1.36.11,2.66.26,2.9.31l.44.11-.57.52c-.31.28-.75.93-.95,1.41-.37.81-.4,1.5-.64,8.47-.13,4.16-.29,8.62-.35,9.9-.02.3-.03.61-.05.94,0,1.38.02,2.76.03,4.13,0,1.26,0,2.51-.07,3.77-.06,1.23-.03,2.46-.02,3.69,0,.62,0,1.24-.02,1.87-.02.59-.11,1.17-.19,1.76-.07.53-.1,1.05-.08,1.58,0,.21,0,.42-.05.62,0,.62-.03,1.4-.07,2.31-.03.92-.09,1.79-.15,2.46-.04.89-.09,1.78-.11,2.67,0,.2,0,.4-.01.6.02.05.03.1.03.16,0,1.15-.13,2.3-.29,3.45-.02.14-.04.27-.06.4.11,2.02.18,4.07-.08,6.08-.01.09-.03.18-.04.27.1,1.38.09,2.76-.08,4.14,0,.07-.03.14-.06.2.01,0,.01.01,0,.04,0,0-.01.01-.02.01-.06.1-.16.18-.29.2-.2.12-.48.28-.81.47-.05.05-.11.08-.18.1-.33.19-.7.38-1.08.58-1.15.61-2.46,1.33-2.9,1.61-.42.26-.77.44-.77.41s-.31.22-.68.57c-.38.35-.91.76-1.21.91ZM27.52,110.42c-.07,0-.35.2-.6.46l-.46.46-.88-.61c-.08-.06-.16-.11-.24-.17-.08,0-.17-.01-.24-.06-.78-.57-1.5-1.2-2.36-1.64-.1-.05-.21-.11-.32-.16.04.07-.05.03-.31-.11-.11-.06-.19-.1-.25-.14-.49-.22-.96-.46-1.33-.87-.04-.04-.07-.09-.09-.14-.07-.03-.13-.07-.19-.11-.26-.17-.57-.33-.7-.35-.4-.07-5.92-3.5-5.9-3.68,0-.23,1.02-.96,1.47-1.1.07-.11.18-.19.33-.2.38-.66,5.92-4.39,6.43-4.3.15.02.57.61.92,1.33.35.7.88,1.83,1.17,2.5.57,1.26,2.09,4.53,3.15,6.75.57,1.22.73,2.13.38,2.13ZM32.45,112.77c-.05.07-2.49-4.81-3.28-6.61-.26-.56-1.52-3.22-2.84-5.92l-2.38-4.9.15-6.75c.15-6.18.2-7.83.48-13.69.26-5.74.42-12.05.44-15.82,0-4.35.37-20.48.48-20.61.05-.07,3.35-1.09,3.59-1.11.05-.02.16.59.22,1.31.29,3.68.62,12.53.75,20.69.05,3.2.18,7.46.27,9.44.11,1.98.26,6.64.37,10.36.2,7.31.62,17.41.92,22.57.11,1.78.24,3.76.27,4.39.04.65.11,1.24.16,1.31.11.19.49,5.25.4,5.35ZM104.01,95.41s-.01.01-.02.02c-.03.02-.05.04-.08.06-.03.03-.06.07-.08.11-.12.09-.3.44-.64,1.19-1.34,2.91-1.94,3.48-4.8,4.64-2.11.83-4.05,1.26-12.44,2.63-.9.15-2.38.43-3.3.63-.9.2-3.04.57-4.76.83-1.7.28-3.9.65-4.86.83s-2.24.39-2.82.46c-1.34.13-4.62.8-9.18,1.83-1.91.44-4.76,1.04-6.32,1.3-1.56.28-3.74.65-4.86.85-6.76,1.2-7.92,1.3-9.9.76-1.8-.5-2.66-1.05-3.5-2.24-.28-.4-.57-.71-.71-.8-.06-.05-.13-.09-.23-.11-.01,0-.03-.01-.05-.02-.22-.37-.41-1.71-.56-3.88-.11-1.48-.31-4.39-.46-6.48-.27-3.85-.55-10.32-.73-16.84-.05-1.98-.18-5.64-.27-8.14s-.22-6.86-.27-9.71c-.13-6.81-.42-15.08-.62-17.39-.09-1.02-.16-2.02-.15-2.22,0-.2-.05-1.79-.13-3.53-.16-3.55-.15-3.61,1.14-3.94,1.48-.37,4.1-.78,6.58-1.04,1.43-.15,2.95-.35,3.39-.46.44-.09,1.17-.19,1.63-.19h.84l.11,1.37c.13,1.44.62,2.94,1.26,3.87.44.63,2,1.42,2.8,1.42,1.08,0,1.96-.39,2.77-1.24,1.3-1.33,1.65-3.18,1.08-5.79-.13-.67-.18-1.26-.11-1.35.07-.07,1.54-.3,3.24-.5,1.7-.2,3.56-.44,4.1-.56.55-.09,1.34-.2,1.74-.26s2.55-.35,4.76-.67c2.22-.3,4.36-.59,4.76-.65.4-.04,1.47-.19,2.36-.3.95-.11,1.69-.13,1.78-.04.11.11.02.65-.2,1.33-.68,2.18-.37,4.46.79,5.72.97,1.05,2.73,1.44,4.03.89.81-.33,1.89-1.5,2.42-2.61.59-1.22,1.15-4.74.95-5.81-.09-.44-.11-.83-.05-.89s.79-.2,1.61-.33c.84-.13,2.44-.39,3.54-.56,1.12-.19,3.34-.46,4.95-.65s3.02-.33,3.13-.35c.11,0,.42.15.68.35.26.2.55.65.66.98.2.61.59,4.31.93,8.92.11,1.42.24,3.05.27,3.61.05.56.13,1.98.18,3.15s.18,2.7.27,3.42c.09.7.22,2.2.27,3.33.07,1.11.15,2.33.18,2.68.05.35.2,2.72.37,5.27.16,2.53.31,5.16.37,5.83.15,2.57.46,6.79.55,7.59.18,1.72.27,2.72.37,4.26.05.87.18,2.28.27,3.15.2,1.7.49,5.62.64,8.72.05,1.05.18,2.59.27,3.4.12,1.02.21,2.98.21,4.02-.07.02-.14.06-.19.11Z"/>
    <path class="cls-1" d="M83.84,42.5c-3.04.94-5.33,4.16-5.79,8.12-.44,4.03,2.31,7.7,6.3,8.4,2.64.44,5.19-.3,7.04-2.04,2.31-2.18,3.32-6.05,2.35-8.99-.77-2.33-2.9-4.48-5.26-5.31-1.06-.37-3.68-.46-4.64-.19ZM87.28,44.92c1.17.72,1.58,1.96,1.06,3.2-.4.96-.92,1.3-2.11,1.39-1.87.13-2.95-.83-2.95-2.66,0-.78.09-1.02.51-1.42.95-.93,2.44-1.15,3.48-.5ZM88.86,50.68c1.06.85,1.28,2.24.42,2.85-.64.44-1.37.35-2-.28-.48-.48-.55-.67-.46-1.22.13-.8.79-1.74,1.21-1.74.18,0,.55.17.82.39Z"/>
    <path class="cls-1" d="M45.81,46.1c-3.99,1.28-6.49,5.38-5.94,9.75.55,4.48,4.65,7.79,8.72,7.03,1.8-.33,3.7-1.31,4.64-2.37,2.69-3.07,3.28-6.75,1.63-10.18-.59-1.2-2.42-3.02-3.65-3.63-1.72-.83-3.92-1.09-5.41-.61ZM49.28,48.42c1.52,1.02,1.63,2.94.22,4.26-.62.59-2.18.76-3.02.31-.93-.5-1.34-1.31-1.25-2.59.05-.98.13-1.15.73-1.7s.79-.63,1.72-.63c.73,0,1.23.11,1.59.35ZM51.13,54.47c.68.72.64,1.78-.07,2.28-.68.5-1.26.5-1.8-.02-.9-.85-.29-2.74.88-2.74.37,0,.71.17.99.48Z"/>
    <path class="cls-1" d="M72.35,55.04c-.26.3-.73.93-1.04,1.44-.75,1.22-1.96,2.02-3.5,2.31-2.42.46-3.96-.07-5.26-1.79-.75-1-.86-1.07-1.63-1.13-1.17-.07-1.81.44-1.81,1.48s.42,1.81,1.56,2.92c1.19,1.11,2.24,1.61,4.2,1.96,2.93.52,6.01-.39,7.97-2.35,1.12-1.11,1.91-2.57,2-3.63.07-.93.05-.98-.53-1.33-.84-.52-1.37-.48-1.94.11Z"/>
  </g>
</svg>